# xmcd CD database file
#
# Track frame offsets:
#	150
#	12243
#	31975
#	45435
#	65364
#	78762
#	90492
#	102717
#	117779
#	131785
#	144051
#	154065
#	166449
#	188260
#	201491
#	213748
#	228623
#	243503
#	257659
#
# Disc length: 3567 seconds
#
# Revision: 0
# Processed by: cddbd v1.5.1PL0 Copyright (c) Steve Scherf et al.
# Submitted via: Feurio! 1.63 - http://www.feurio.com
#
DISCID=fd0ded13
DTITLE=Tom Astor - Tom Astor und seine Zeit CD1
DYEAR=2000
DGENRE=Ballad
TTITLE0=Hallo Guten Morgen Deutschland
TTITLE1=Daddy Wenn Ich Gross Bin Fahr Ich Diesel
TTITLE2=Alter Freund, Überhol Dich Nicht Selber
TTITLE3=Der Feigling Des Jahrhunderts
TTITLE4=Der Kleine Trucker
TTITLE5=Ein Unbekannter Stuntman
TTITLE6=Trucker Sind Partner
TTITLE7=Halt Abstand Junge
TTITLE8=Ich Bin Kein Dichter - Kei Poet
TTITLE9=Ich Wünsch Dir Hals - Und Beinbruch
TTITLE10=Ihr Leben, Das Ist Ihr Laster
TTITLE11=Junge Zieh Die Bremse An
TTITLE12=Kameraden Der Strasse
TTITLE13=Partner Fahr Rechts
TTITLE14=Radwechsel
TTITLE15=Renovier Deine Seele
TTITLE16=Sonntagmorgen
TTITLE17=Take It Easy - Nimms Leicht
TTITLE18=Adios Amigo
EXTD=
EXTT0=
EXTT1=
EXTT2=
EXTT3=
EXTT4=
EXTT5=
EXTT6=
EXTT7=
EXTT8=
EXTT9=
EXTT10=
EXTT11=
EXTT12=
EXTT13=
EXTT14=
EXTT15=
EXTT16=
EXTT17=
EXTT18=
PLAYORDER=
